<svg xmlns="http://www.w3.org/2000/svg" xmlns:xlink="http://www.w3.org/1999/xlink" width="32" height="32" viewBox="0 0 32 32">
    <defs>
        <path id="a" d="M0 .088v19.19h14.87V.089H0z"/>
        <path id="c" d="M.227 10.5h14.546V.075H.227z"/>
    </defs>
    <g fill="none" fill-rule="evenodd">
        <g transform="translate(9 1)">
            <mask id="b" fill="#fff">
                <use xlink:href="#a"/>
            </mask>
            <path fill="#000" d="M2.48 18.56c.177.45.623.718 1.098.718h7.725c.476 0 .891-.268 1.1-.716l2.407-6.397a.972.972 0 0 0-.06-.807L8.215.298a1.29 1.29 0 0 0-.178-.21v8.52c.86.268 1.485 1.135 1.484 2.151 0 1.226-.92 2.242-2.08 2.242-1.158 0-2.08-1.016-2.08-2.242 0-1.016.625-1.883 1.487-2.152V.087c-.059.06-.118.12-.178.21L.133 11.357c-.149.239-.179.567-.06.806l2.406 6.398z" mask="url(#b)"/>
        </g>
        <g transform="translate(9 22)">
            <mask id="d" fill="#fff">
                <use xlink:href="#c"/>
            </mask>
            <path fill="#000" d="M14.773 10.495v-.613c0-5.393-.556-9.806-1.237-9.806L1.466.075C.786.075.228 4.487.227 9.88v.62c.036-.002.07-.006.107-.006h14.44z" mask="url(#d)"/>
        </g>
    </g>
</svg>
