<svg xmlns="http://www.w3.org/2000/svg" width="116" height="18" viewBox="0 0 116 18">
    <g fill="#3F4147" fill-rule="nonzero">
        <path d="M114.5 1.3c-1.7 1-3.5 1.9-5.2 2.9l-.6-.3c-2-1.1-3.9-2.2-5.9-3.3V8c.3.2.7.4 1 .6 1.8 1 3.7 2.1 5.5 3.1.4-.2.7-.4 1.1-.6 1.8-1 3.7-2.1 5.5-3.1V.6c-.5.1-.9.4-1.4.7zM46 7.9c.7 0 1.4-.1 2.1-.1.8 1.9 1.7 3.8 2.5 5.7 0 .1 0 .1.1.2.8-1.9 1.7-3.9 2.5-5.8h2c.3 2.4.6 4.7 1 7.1.1.9.3 1.7.4 2.6-.9 0-1.8.1-2.7.1-.1-1.7-.4-3.4-.6-5.1-.7 1.7-1.4 3.4-2 5.1-.5 0-.9 0-1.4.1-.7-1.7-1.4-3.4-2.1-5-.2 1.6-.4 3.2-.5 4.9h-2.7c.3-1.5.5-3 .7-4.6.3-1.9.5-3.6.7-5.2zM.5 7.9c.9 0 1.8-.1 2.7-.1.7 2.1 1.4 4.2 2.1 6.2 0-.1.1-.2.1-.3.7-2 1.3-3.9 2-5.9h2.9C9.2 10.5 8.1 13.2 7 16c-.2.5-.4 1-.5 1.5-.7 0-1.4.1-2.2.1l-3-7.2C1 9.6.7 8.8.3 8c0-.1.1-.1.2-.1zM26 7.9c1 0 2-.1 3-.1.7 1 1.3 2 2 3.1.6-1 1.1-1.9 1.7-2.9 0-.1.1-.1.2-.1h2.9c-1.1 1.6-2.1 3.2-3.2 4.7.6.9 1.3 1.8 1.9 2.8.4.7.9 1.4 1.4 2.1-1 0-2 .1-3 .1-.6-1-1.3-2.1-1.9-3.1l-.1-.1c-.6 1-1.3 2.1-1.9 3.1H25.9c1.1-1.6 2.2-3.3 3.3-4.9-.7-1-1.4-2.1-2.1-3.1-.4-.5-.8-1-1.1-1.6zM60.8 7.8c2.1.1 4.3.1 6.4 0-.1.7-.1 1.4-.1 2.2h-3.5v1.7h3v1.9h-2.9v1.9h3.9c-.1.7-.1 1.5-.1 2.2-2.2-.1-4.4-.1-6.6 0 .1-1.7.1-3.5.1-5.3-.1-1.6-.1-3.1-.2-4.6zM84.5 7.9c1 0 1.9 0 2.9-.1-.1 1.6 0 3.1-.1 4.7 0 1.7 0 3.3.1 5h-2.9c.1-1.6.1-3.3.1-4.9 0-1.6 0-3.2-.1-4.7zM22.4 10.2c-.4-.8-1-1.5-1.8-1.9-.9-.5-2.1-.7-3.1-.6-1.2.1-2.3.7-3.1 1.5-.8.9-1.3 2.2-1.3 3.4 0 1 .2 2.1.8 3 .5.9 1.4 1.5 2.4 1.8.5.2 1 .2 1.5.3.5 0 .9-.1 1.4-.2.7-.2 1.4-.5 2-1 .8-.7 1.4-1.7 1.6-2.8.2-1.1.2-2.4-.4-3.5zm-2.5 4c-.2.5-.6.9-1.1 1.2-.6.3-1.4.2-2-.2-.6-.4-.9-1-1-1.7-.2-.9-.1-1.8.3-2.6.3-.5.8-1 1.4-1.1.6-.1 1.2 0 1.7.4s.8 1 .9 1.7c.2.8.2 1.6-.2 2.3zM80.3 11.6c-.2-1-.7-2-1.5-2.6-.8-.6-1.8-.9-2.7-1.1-.8-.1-1.6-.1-2.4-.1-.7 0-1.4.1-2.2.1.1 1.5.1 2.9.1 4.4 0 1.7 0 3.5-.1 5.2h3c1.2 0 2.4-.1 3.5-.7.8-.5 1.5-1.2 1.9-2.1.5-1 .6-2.1.4-3.1zm-2.6 1.8c-.1.7-.5 1.3-1.1 1.7-.6.4-1.4.4-2.2.3-.1-.6 0-1.2 0-1.8v-2.8-.8c.6-.1 1.3-.1 1.9.2.5.2 1 .7 1.2 1.2.3.6.3 1.3.2 2zM100.7 15.4c-1-2.3-1.9-4.5-2.9-6.8-.1-.3-.2-.6-.4-.9-.7 0-1.5.1-2.2.1-.3.9-.7 1.8-1.1 2.6l-3 6.9h2.8c.2-.6.4-1.1.7-1.7h3.3c.2.6.4 1.1.7 1.7 0 .1 0 .2.2.2.9 0 1.9-.1 2.8-.1-.3-.6-.6-1.3-.9-2zm-5.5-1.3c.4-1 .7-2 1.1-2.9.4 1 .7 2 1.1 2.9h-2.2z"/>
    </g>
</svg>
