<svg xmlns="http://www.w3.org/2000/svg" width="32" height="30" viewBox="0 0 32 30">
    <g fill="none" fill-rule="evenodd">
        <path fill="#FFF" d="M3.103 26.017l-.235-1.252L14.663 6.438l.327-.182 16.485 3.13.235 1.252-11.795 18.327-.327.182z"/>
        <path fill="#000" d="M14.382 5.902L2.588 24.23l.469 2.504 16.485 3.13.653-.363L31.99 11.173l-.47-2.504-16.484-3.13-.654.363zM3.15 25.3L14.944 6.973l16.485 3.13L19.634 28.43 3.149 25.3z"/>
        <path fill="#FFF" d="M2.181 22.844l-.234-1.252L13.742 3.265l.326-.182 16.485 3.13.235 1.252-11.795 18.327-.326.182z"/>
        <path fill="#000" d="M14.114 2.366l-.653.363L1.666 21.056l.47 2.505 16.485 3.13.653-.363L31.069 8l-.47-2.504-16.485-3.13zM14.022 3.8l16.486 3.13-11.795 18.327-16.486-3.13L14.022 3.8z"/>
        <path fill="#000" d="M.779 19.964L13.239.602 30.616 3.9l-12.46 19.362z"/>
        <path fill="#FFF" d="M13.126 0l-.223.347L1.108 18.674 0 20.396l1.484.282 16.485 3.13.299.056.223-.347L30.286 5.19l1.108-1.722-1.483-.281L13.426.057 13.127 0zM1.557 19.531L13.352 1.204l16.485 3.13L18.042 22.66 1.557 19.53z"/>
    </g>
</svg>
