<svg xmlns="http://www.w3.org/2000/svg" xmlns:xlink="http://www.w3.org/1999/xlink" width="152" height="64" viewBox="0 0 152 64">
    <defs>
        <path id="a" d="M0 15.836V.137h9.001v15.699z"/>
        <path id="c" d="M0 50.246h55.083V0H0z"/>
    </defs>
    <g fill="none" fill-rule="evenodd">
        <text fill="#000" font-family="Roboto-Bold, Roboto" font-size="20" font-weight="bold" opacity=".85">
            <tspan x="65.062" y="39">Jaeil Cho</tspan>
        </text>
        <g transform="translate(0 6.8)">
            <path fill="#010202" d="M48.974 31.611c2.027 1.505 6.345 5.025 6.1 7.56-.223 2.301-9.404 2.013-15.497 1.568.312-.529.634-1.055 1.006-1.535 1.707-.013 3.428-.442 4.869-1.4a7.548 7.548 0 0 0 2.494-2.807c.556-1.065.741-2.23 1.028-3.386zM23.591 37.015c0 .372-.569.673-1.271.673s-1.272-.301-1.272-.673c0-.372.57-.672 1.272-.672.702 0 1.271.3 1.271.672M28.112 37.015c0 .372-.57.673-1.272.673-.702 0-1.27-.301-1.27-.673 0-.372.568-.672 1.27-.672.702 0 1.272.3 1.272.672"/>
            <path fill="#010202" d="M41.744 39.482c-.535 0-1.068-.06-1.585-.18l.18-.876c.458.106.93.159 1.405.159 3.622 0 6.569-3.119 6.569-6.952 0-3.833-2.947-6.952-6.57-6.952-.266 0-.534.017-.798.05l-.102-.89c.297-.038.6-.057.9-.057 4.09 0 7.417 3.52 7.417 7.85 0 4.327-3.327 7.848-7.416 7.848"/>
            <path fill="#010202" d="M42.256 35.995a3.66 3.66 0 0 1-.826-.093l.18-.876c.21.048.428.072.646.072 1.662 0 3.014-1.43 3.014-3.19 0-1.759-1.352-3.19-3.014-3.19a2.99 2.99 0 0 0-.367.023l-.102-.89c.154-.02.312-.03.47-.03 2.128 0 3.86 1.833 3.86 4.087 0 2.254-1.732 4.087-3.86 4.087M24.58 50.246c-5.6 0-9.977-1.793-13.013-5.33-3.687-4.298-5.226-11.08-4.448-19.613.55-6.031 3.737-11 9.22-14.369 4.114-2.528 8.006-3.26 8.17-3.29l.144.884c-.04.007-3.926.74-7.91 3.196-5.298 3.263-8.252 7.86-8.78 13.665-.754 8.274.709 14.818 4.232 18.923 2.868 3.343 7.035 5.038 12.385 5.038v.896z"/>
            <path fill="#010202" d="M24.58 50.246v-.896c5.35 0 9.517-1.695 12.386-5.038 3.522-4.105 4.985-10.649 4.231-18.923-.528-5.804-3.482-10.402-8.78-13.665-3.984-2.456-7.87-3.19-7.909-3.196l.144-.884c.164.03 4.055.762 8.17 3.29 5.481 3.37 8.67 8.338 9.219 14.37.778 8.532-.76 15.314-4.448 19.611-3.036 3.538-7.414 5.331-13.013 5.331"/>
            <path fill="#010202" d="M41.744 24.382c-17.164-18.165-34.328 0-34.328 0l-1.907-.15C1.695-1.332 24.58.013 24.58.013s22.886-1.345 19.072 24.22"/>
            <g transform="translate(0 23.646)">
                <mask id="b" fill="#fff">
                    <use xlink:href="#a"/>
                </mask>
                <path fill="#010202" d="M7.417 15.836C3.327 15.836 0 12.314 0 7.986 0 3.659 3.327.138 7.417.138c.3 0 .603.02.9.057l-.102.891a6.252 6.252 0 0 0-.798-.05c-3.623 0-6.57 3.118-6.57 6.952 0 3.833 2.947 6.951 6.57 6.951.474 0 .946-.053 1.404-.159l.18.877c-.517.119-1.05.18-1.584.18" mask="url(#b)"/>
            </g>
            <path fill="#010202" d="M6.905 35.995c-2.13 0-3.862-1.833-3.862-4.087 0-2.254 1.732-4.088 3.862-4.088.157 0 .314.01.468.03l-.101.89a3.002 3.002 0 0 0-.367-.022c-1.663 0-3.015 1.431-3.015 3.19 0 1.76 1.352 3.19 3.015 3.19.218 0 .435-.024.645-.072l.18.876c-.27.063-.547.093-.825.093"/>
            <mask id="d" fill="#fff">
                <use xlink:href="#c"/>
            </mask>
            <path fill="#010202" d="M10.171 28.942h10.171v-1.346H10.171zM28.818 28.942H38.99v-1.346H28.818zM6.786 22.102l-4.483 7.747 2.24-1.152v3.536l1.038-1.748.436 2.98 1.34-3.378.165-7.985zM42.206 22.102l4.484 7.747-2.242-1.152v3.536l-1.038-1.748-.434 2.98-1.34-3.378-.166-7.985z" mask="url(#d)"/>
            <path fill="#010202" d="M41.71 24.876l-13.823.982-.309-4.874 13.824-.98z" mask="url(#d)"/>
            <path fill="#FEFEFE" d="M27.879 21.263l.27 4.277 13.261-.942-.271-4.277-13.26.942zm-.256 4.913l-.346-5.47 14.388-1.021.346 5.47-14.388 1.021z" mask="url(#d)"/>
            <path fill="#231F20" d="M19.819 42.129h9.816v-.872h-9.816z" mask="url(#d)"/>
            <path fill="#010202" d="M7.2 24.874l13.873.985.31-4.89-13.873-.985z" mask="url(#d)"/>
            <path fill="#FEFEFE" d="M7.5 24.596l13.31.945.272-4.294-13.31-.945-.272 4.294zm13.835 1.581L6.9 25.152l.348-5.487 14.436 1.025-.348 5.487z" mask="url(#d)"/>
        </g>
    </g>
</svg>
